<?xml version="1.0" encoding="UTF-8" standalone="no"?>
<!DOCTYPE svg PUBLIC "-//W3C//DTD SVG 1.1//EN" "http://www.w3.org/Graphics/SVG/1.1/DTD/svg11.dtd">
<svg width="100%" height="100%" viewBox="0 0 2250 3500" version="1.1" xmlns="http://www.w3.org/2000/svg" xmlns:xlink="http://www.w3.org/1999/xlink" xml:space="preserve" xmlns:serif="http://www.serif.com/" style="fill-rule:evenodd;clip-rule:evenodd;stroke-linecap:round;stroke-linejoin:round;stroke-miterlimit:1.5;">
    <g transform="matrix(10.038,0,0,9.99814,-1308.48,-942.104)">
        <path d="M354.502,116.732C354.502,104.312 344.459,94.228 332.087,94.228L152.768,94.228C140.397,94.228 130.353,104.312 130.353,116.732L130.353,421.789C130.353,434.209 140.397,444.293 152.768,444.293L332.087,444.293C344.459,444.293 354.502,434.209 354.502,421.789L354.502,116.732Z" style="fill:rgb(207,61,46);"/>
    </g>
    <g transform="matrix(8.66771,0,0,9.14116,-976.295,-711.352)">
        <path d="M354.502,115.482C354.502,103.751 344.459,94.228 332.087,94.228L152.768,94.228C140.397,94.228 130.353,103.751 130.353,115.482L130.353,423.039C130.353,434.769 140.397,444.293 152.768,444.293L332.087,444.293C344.459,444.293 354.502,434.769 354.502,423.039L354.502,115.482Z" style="fill:none;stroke:rgb(242,242,242);stroke-width:2.81px;"/>
    </g>
    <g transform="matrix(10,0,0,10,-4366.68,-633.733)">
        <path d="M545.584,285.298C568.276,286.61 595.087,260.605 576.419,228.606C576.833,236.981 574.892,243.473 570.512,248.013C570.428,223.869 565.598,201.177 531.237,191.401C542.543,202.022 546.9,213.024 540,223.236C538.048,214.208 534.749,210.325 530.546,209.888C533.758,217.531 530.124,224.84 525.112,230.127C507.067,249.161 515.328,283.549 545.584,285.298Z" style="fill:none;stroke:rgb(242,242,242);stroke-width:2.5px;"/>
    </g>
</svg>
